<svg version="1.1" id="Layer_1" xmlns="http://www.w3.org/2000/svg" xmlns:xlink="http://www.w3.org/1999/xlink" x="0px" y="0px"
	 width="100%" viewBox="0 0 90 90" enable-background="new 0 0 90 90" xml:space="preserve">
<path fill="#09090B" opacity="1.000000" stroke="none" 
	d="
M55.000000,91.000000 
	C36.666668,91.000000 18.833340,91.000000 1.000007,91.000000 
	C1.000005,61.000008 1.000005,31.000017 1.000002,1.000019 
	C30.999987,1.000013 60.999973,1.000013 90.999969,1.000006 
	C90.999985,30.999979 90.999985,60.999958 90.999992,90.999969 
	C79.166664,91.000000 67.333336,91.000000 55.000000,91.000000 
M53.437775,71.995552 
	C54.601780,71.995529 55.765789,71.998116 56.929787,71.995094 
	C68.246674,71.965714 73.980476,66.180740 73.993294,54.757160 
	C74.003555,45.611542 74.068016,36.465118 73.972351,27.320477 
	C73.878838,18.382675 67.811958,12.151570 58.997646,12.037432 
	C49.022263,11.908260 39.042789,11.914204 29.067207,12.035373 
	C20.227108,12.142750 14.122671,18.341413 14.030048,27.255598 
	C13.928121,37.065311 13.930415,46.877666 14.028882,56.687447 
	C14.120517,65.816620 20.297119,71.884850 29.508907,71.978241 
	C37.157204,72.055794 44.806900,71.995033 53.437775,71.995552 
z"/>
<path fill="#222224" opacity="1.000000" stroke="none" 
	d="
M52.946877,71.995544 
	C44.806900,71.995033 37.157204,72.055794 29.508907,71.978241 
	C20.297119,71.884850 14.120517,65.816620 14.028882,56.687447 
	C13.930415,46.877666 13.928121,37.065311 14.030048,27.255598 
	C14.122671,18.341413 20.227108,12.142750 29.067207,12.035373 
	C39.042789,11.914204 49.022263,11.908260 58.997646,12.037432 
	C67.811958,12.151570 73.878838,18.382675 73.972351,27.320477 
	C74.068016,36.465118 74.003555,45.611542 73.993294,54.757160 
	C73.980476,66.180740 68.246674,71.965714 56.929787,71.995094 
	C55.765789,71.998116 54.601780,71.995529 52.946877,71.995544 
M30.861670,52.222496 
	C30.715164,52.553333 30.815418,52.823750 31.641401,53.600426 
	C32.066837,53.814697 32.804653,54.288368 32.872978,54.206089 
	C36.606800,49.709743 41.770630,50.996437 46.592678,50.610275 
	C56.550713,49.812813 56.660656,49.566463 56.670494,39.645138 
	C56.672470,37.651443 56.866665,35.647671 56.722946,33.666630 
	C56.532475,31.041142 55.699444,29.110579 52.327106,29.263952 
	C47.182384,29.497931 41.986786,28.998816 36.880520,29.500433 
	C34.879192,29.697035 33.060749,31.755280 30.907597,33.188015 
	C30.703823,33.496296 30.765730,33.772896 31.317888,34.928036 
	C31.243042,40.612556 31.168196,46.297081 30.861670,52.222496 
M32.502449,55.487019 
	C32.502449,55.487019 32.525829,55.535099 32.502449,55.487019 
z"/>
<path fill="#DBDBDB" opacity="1.000000" stroke="none" 
	d="
M31.159018,32.965679 
	C33.060749,31.755280 34.879192,29.697035 36.880520,29.500433 
	C41.986786,28.998816 47.182384,29.497931 52.327106,29.263952 
	C55.699444,29.110579 56.532475,31.041142 56.722946,33.666630 
	C56.866665,35.647671 56.672470,37.651443 56.670494,39.645138 
	C56.660656,49.566463 56.550713,49.812813 46.592678,50.610275 
	C41.770630,50.996437 36.606800,49.709743 32.872978,54.206089 
	C32.804653,54.288368 32.066837,53.814697 31.449478,53.049789 
	C31.202818,52.326637 31.148085,52.154121 31.093349,51.981602 
	C31.168196,46.297081 31.243042,40.612556 31.287468,34.213974 
	C31.224371,33.321838 31.191694,33.143761 31.159018,32.965679 
M34.077820,36.721485 
	C34.077820,40.746983 34.077820,44.772480 34.077820,47.684414 
	C40.981209,47.262947 47.349907,46.874123 53.479996,46.499870 
	C53.479996,41.488811 53.479996,36.940834 53.479996,32.079521 
	C47.746151,32.079521 42.447662,32.201725 37.158588,32.031525 
	C34.209305,31.936613 33.889660,33.532459 34.077820,36.721485 
z"/>
<path fill="#151519" opacity="1.000000" stroke="none" 
	d="
M31.033306,33.076847 
	C31.191694,33.143761 31.224371,33.321838 31.175182,33.758865 
	C30.765730,33.772896 30.703823,33.496296 31.033306,33.076847 
z"/>
<path fill="#151519" opacity="1.000000" stroke="none" 
	d="
M30.977509,52.102051 
	C31.148085,52.154121 31.202818,52.326637 31.209991,52.766449 
	C30.815418,52.823750 30.715164,52.553333 30.977509,52.102051 
z"/>
<path fill="#151519" opacity="1.000000" stroke="none" 
	d="
M32.514137,55.511059 
	C32.525829,55.535099 32.502449,55.487019 32.514137,55.511059 
z"/>
<path fill="#232325" opacity="1.000000" stroke="none" 
	d="
M34.077942,36.248970 
	C33.889660,33.532459 34.209305,31.936613 37.158588,32.031525 
	C42.447662,32.201725 47.746151,32.079521 53.479996,32.079521 
	C53.479996,36.940834 53.479996,41.488811 53.479996,46.499870 
	C47.349907,46.874123 40.981209,47.262947 34.077820,47.684414 
	C34.077820,44.772480 34.077820,40.746983 34.077942,36.248970 
z"/>
</svg>